<?xml version="1.0" encoding="UTF-8"?>
<!DOCTYPE svg PUBLIC "-//W3C//DTD SVG 1.1//EN" "http://www.w3.org/Graphics/SVG/1.1/DTD/svg11.dtd">
<!-- Creator: CorelDRAW 2018 (64 Bit Versão de avaliação) -->
<svg xmlns="http://www.w3.org/2000/svg" xml:space="preserve" width="39.1614mm" height="3.3868mm" version="1.1" shape-rendering="geometricPrecision" text-rendering="geometricPrecision" image-rendering="optimizeQuality" fill-rule="evenodd" clip-rule="evenodd"
viewBox="0 0 4149.66 358.88"
 xmlns:xlink="http://www.w3.org/1999/xlink">
 <g id="Camada_x0020_1">
  <metadata id="CorelCorpID_0Corel-Layer"/>
  <path fill="white" d="M179.43 0l20.46 0 0 0 0.43 0 0 0c29.07,0 52.84,23.78 52.84,52.84 0,-28.92 23.54,-52.61 52.42,-52.84l0 0c29.3,0 53.28,23.97 53.28,53.28l0 252.75c0,29.07 -23.79,52.84 -52.85,52.84l-0.42 0 0 -0.01c-28.87,-0.23 -52.42,-23.92 -52.42,-52.83 0,29.01 -23.7,52.77 -52.71,52.84l-0.28 0 -0.3 -0.01 0 0.01 -20.46 0c-98.69,0 -179.44,-80.75 -179.44,-179.44l0 0c0,-98.69 80.74,-179.44 179.44,-179.44zm395.4 306.47l0 0c69.78,69.78 183.97,69.78 253.76,0l126.88 -126.89 -126.88 -126.88c-69.79,-69.79 -183.98,-69.79 -253.76,0l0 0c-69.79,69.79 -69.79,183.98 0,253.77zm230.2 -127.03l-52.14 52.14c-28.53,28.54 -75.76,28.54 -104.29,0 -28.54,-28.54 -28.54,-75.76 0,-104.3 28.53,-28.53 75.76,-28.53 104.29,0l52.14 52.16zm-364.36 -179.44l0 0c29.08,0 52.85,23.78 52.85,52.84l0 253.19c0,29.07 -23.78,52.84 -52.85,52.84l0 0c-29.07,0 -52.84,-23.78 -52.84,-52.84l0 -253.19c0,-29.07 23.78,-52.84 52.84,-52.84z"/>
  <g id="_2232461803904">
   <path fill="white" fill-rule="nonzero" d="M2388.28 255.26l16.19 0 0 -64.54c0,-19.17 13.64,-32.81 33.44,-32.81 19.82,0 33.44,13.64 33.44,32.81l0 64.54 16.19 0 0 -66.25c0,-25.99 -18.74,-44.53 -45.59,-44.53 -16.62,0 -29.82,7.25 -37.49,18.76l0 -16.63 -16.19 0 0 108.64zm121.63 -28.12c0,20.87 16.62,30.25 36.01,30.25 19.38,0 34.29,-9.16 43.23,-22.58l0 20.45 16.19 0 0 -69.23c0,-25.57 -17.04,-41.55 -45.59,-41.55 -29.18,0 -44.95,15.13 -46.01,37.5l16.19 0c1.06,-15.77 11.93,-24.29 29.82,-24.29 18.32,0 29.39,11.29 29.39,27.48l0 10.65c-10.65,-1.71 -20.02,-2.55 -28.11,-2.55 -31.52,0 -51.13,11.93 -51.13,33.87zm16.62 -1.06c0,-11.51 9.17,-20.03 33.65,-20.03 9.59,0 20.03,1.28 28.97,2.99 -2.13,16.62 -17.25,35.15 -39.41,35.15 -13.2,0 -23.22,-5.12 -23.22,-18.11zm107.57 29.18l16.19 0 0 -21.09c9.16,14.27 24.29,23.22 43.24,23.22 30.03,0 52.61,-24.29 52.61,-56.45 0,-32.17 -22.58,-56.46 -52.61,-56.46 -18.53,0 -34.09,9.38 -43.24,23.86l0 -70.72 -16.19 0 0 157.63zm16.19 -54.32c0,-24.07 17.25,-42.82 39.62,-42.82 22.37,0 39.62,18.74 39.62,42.82 0,24.06 -17.25,42.81 -39.62,42.81 -22.37,0 -39.62,-18.74 -39.62,-42.81l0 0zm115.03 0c0,32.16 24.07,56.45 56.23,56.45 25.57,0 44.74,-14.06 52.2,-36l-17.47 0c-6.39,13.2 -17.9,22.36 -34.72,22.36 -20.45,0 -37.07,-15.76 -39.41,-37.91l95.43 0c2.56,-35.36 -23,-61.35 -56.02,-61.35 -32.16,0 -56.23,24.29 -56.23,56.46zm17.47 -9.17c3.19,-17.67 17.89,-33.65 38.76,-33.65 20.87,0 35.79,16.19 38.77,33.65l-77.53 0zm120.56 63.48l16.19 0 0 -64.54c0,-19.17 13.64,-32.81 33.44,-32.81 19.82,0 33.44,13.64 33.44,32.81l0 64.54 16.19 0 0 -66.25c0,-25.99 -18.74,-44.53 -45.59,-44.53 -16.62,0 -29.82,7.25 -37.49,18.76l0 -16.63 -16.19 0 0 108.64zm123.76 -54.32c0,32.16 24.07,56.45 56.23,56.45 25.57,0 44.74,-14.06 52.2,-36l-17.47 0c-6.39,13.2 -17.9,22.36 -34.72,22.36 -20.45,0 -37.07,-15.76 -39.41,-37.91l95.43 0c2.56,-35.36 -23,-61.35 -56.02,-61.35 -32.16,0 -56.23,24.29 -56.23,56.46zm17.47 -9.17c3.19,-17.67 17.89,-33.65 38.76,-33.65 20.87,0 35.79,16.19 38.77,33.65l-77.53 0zm210.03 63.48l16.19 0 0 -157.63 -16.19 0 0 70.3c-9.16,-14.27 -24.49,-23.44 -43.23,-23.44 -30.04,0 -52.62,24.29 -52.62,56.46 0,32.16 22.58,56.45 52.62,56.45 18.31,0 33.87,-9.16 43.23,-23.86l0 21.73zm-79.24 -54.32c0,-24.07 17.26,-42.82 39.62,-42.82 22.37,0 39.62,18.74 39.62,42.82 0,24.06 -17.25,42.81 -39.62,42.81 -22.36,0 -39.62,-18.74 -39.62,-42.81l0 0zm125.26 54.32l16.19 0 0 -108.64 -16.19 0 0 108.64zm-2.77 -140.38c0,6.18 4.68,10.86 10.86,10.86 6.18,0 10.86,-4.68 10.86,-10.86 0,-6.18 -4.68,-10.86 -10.86,-10.86 -6.18,0 -10.86,4.68 -10.86,10.86zm62.62 31.74l-22.37 0 0 13.85 22.37 0 0 53.89c0,30.46 16.83,50.49 54.53,39.2l0 -13.85c-27.26,8.31 -38.34,-2.55 -38.34,-24.92l0 -54.32 38.34 0 0 -13.85 -38.34 0 0 -31.95 -16.19 0 0 31.95zm70.51 54.33c0,32.16 24.07,56.45 56.25,56.45 32.17,0 56.25,-24.29 56.25,-56.45 0,-32.17 -24.07,-56.46 -56.25,-56.46 -32.17,0 -56.25,24.29 -56.25,56.46zm16.62 0c0,-24.07 17.26,-42.82 39.63,-42.82 22.37,0 39.62,18.74 39.62,42.82 0,24.06 -17.25,42.81 -39.62,42.81 -22.37,0 -39.63,-18.74 -39.63,-42.81zm-1369.3 23.85c0,21.09 15.76,32.59 36.84,32.59 13.85,0 26.84,-4.47 36.43,-15.12l0 12.99 32.81 0 0 -67.74c0,-29.39 -19.6,-45.59 -51.34,-45.59 -33.65,0 -50.06,17.69 -51.13,39.83l32.81 0c0.42,-9.16 7.46,-14.26 18.32,-14.26 11.07,0 18.53,6.18 18.53,17.46l0 5.97c-9.16,-1.28 -17.04,-1.92 -22.79,-1.92 -33.87,0 -50.48,13.64 -50.48,35.78zm33.02 -1.71c0,-7.45 5.96,-11.92 20.66,-11.92 5.74,0 12.57,0.64 19.59,1.92 -1.49,9.58 -11.29,20.44 -26.63,20.44 -8.73,0 -13.63,-3.61 -13.63,-10.44zm95.43 32.17l32.81 0 0 -111.2 -32.81 0 0 111.2zm-2.34 -142.72c0,10.65 8.31,18.74 18.74,18.74 10.44,0 18.74,-8.1 18.74,-18.74 0,-10.44 -8.31,-18.53 -18.74,-18.53 -10.44,0 -18.74,8.1 -18.74,18.53zm52.19 112.26c0,21.09 15.76,32.59 36.85,32.59 13.85,0 26.84,-4.47 36.43,-15.12l0 12.99 32.81 0 0 -67.74c0,-29.39 -19.6,-45.59 -51.34,-45.59 -33.66,0 -50.07,17.69 -51.14,39.83l32.82 0c0.42,-9.16 7.46,-14.26 18.32,-14.26 11.07,0 18.53,6.18 18.53,17.46l0 5.97c-9.16,-1.28 -17.04,-1.92 -22.79,-1.92 -33.88,0 -50.49,13.64 -50.49,35.78zm33.03 -1.71c0,-7.45 5.96,-11.92 20.66,-11.92 5.74,0 12.57,0.64 19.59,1.92 -1.49,9.58 -11.29,20.44 -26.63,20.44 -8.73,0 -13.63,-3.61 -13.63,-10.44z"/>
   <path fill="white" fill-rule="nonzero" d="M3662.57 146.53l15.57 0 0 -52.77 -15.57 0 0 52.77zm-1.11 -67.73c0,5.05 3.94,8.89 8.89,8.89 4.96,0 8.9,-3.84 8.9,-8.89 0,-4.96 -3.94,-8.81 -8.9,-8.81 -4.95,0 -8.89,3.85 -8.89,8.81zm27.8 67.73l15.57 0 0 -74.81 -15.57 0 0 74.81zm26.18 -52.77l0 28.61c0,14.96 10.71,25.17 26.18,25.17 15.47,0 26.18,-10.2 26.18,-25.17l0 -28.61 -15.57 0 0 29.92c0,6.88 -4.45,10.82 -10.62,10.82 -6.17,0 -10.62,-3.94 -10.62,-10.82l0 -29.92 -15.57 0zm60.96 35.99c1.42,10.92 9,17.79 24.36,17.79 16.07,0 24.27,-7.98 24.27,-16.88 0,-22.64 -32.24,-12.03 -32.24,-21.84 0,-2.72 2.72,-4.65 7.38,-4.65 4.65,0 7.68,2.43 8.19,6.37l15.57 0c-1.41,-11.02 -9,-17.79 -23.25,-17.79 -14.87,0 -23.15,7.99 -23.15,16.78 0,22.24 32.35,12.03 32.35,21.93 0,2.73 -2.73,4.65 -8.59,4.65 -5.76,0 -8.79,-2.52 -9.3,-6.37l-15.57 0zm61.87 -35.99l-8.7 0 0 12.63 8.7 0 0 20.53c0,14.45 8.69,23.96 30.73,19.41l0 -12.94c-11.02,2.92 -15.16,-0.61 -15.16,-6.88l0 -20.12 15.16 0 0 -12.63 -15.16 0 0 -13.96 -15.57 0 0 13.96zm40.54 52.77l15.57 0 0 -28.81c0,-7.88 7.08,-11.73 17.39,-9.91l0 -14.67c-7.08,-1.41 -13.45,1.52 -17.39,6.98l0 -6.37 -15.57 0 0 52.77zm34.88 -14.45c0,10 7.48,15.46 17.48,15.46 6.57,0 12.74,-2.12 17.29,-7.17l0 6.17 15.57 0 0 -32.15c0,-13.96 -9.3,-21.64 -24.36,-21.64 -15.98,0 -23.77,8.39 -24.27,18.9l15.57 0c0.2,-4.34 3.54,-6.77 8.7,-6.77 5.26,0 8.79,2.94 8.79,8.29l0 2.84c-4.36,-0.61 -8.1,-0.91 -10.82,-0.91 -16.07,0 -23.96,6.46 -23.96,16.99zm15.66 -0.82c0,-3.54 2.84,-5.66 9.81,-5.66 2.72,0 5.97,0.31 9.3,0.91 -0.71,4.55 -5.36,9.71 -12.64,9.71 -4.14,0 -6.47,-1.72 -6.47,-4.96zm60.77 36c1.92,0.31 3.94,0.51 5.96,0.51 7.59,0 15.38,-2.63 15.38,-11.73 0,-3.23 -1.62,-6.97 -3.34,-9.4 10.62,-2.43 18.19,-10.32 19.51,-20.43l-16.28 0c-1.72,5.16 -5.26,8.3 -10.51,8.3 -6.88,0 -11.83,-5.76 -11.83,-14.36 0,-8.59 4.95,-14.46 11.83,-14.46 5.26,0 8.79,3.24 10.51,8.39l16.28 0c-1.52,-12.33 -12.54,-21.33 -26.79,-21.33 -16.48,0 -28.21,11.42 -28.21,27.4 0,13.94 8.9,24.47 22.14,26.79 1.42,1.62 2.33,3.74 2.33,5.46 0,2.84 -2.13,4.56 -6.97,3.74l0 11.13zm43.57 -35.18c0,10 7.48,15.46 17.48,15.46 6.57,0 12.74,-2.12 17.29,-7.17l0 6.17 15.57 0 0 -32.15c0,-13.96 -9.3,-21.64 -24.36,-21.64 -15.98,0 -23.77,8.39 -24.27,18.9l15.57 0c0.2,-4.34 3.54,-6.77 8.7,-6.77 5.26,0 8.79,2.94 8.79,8.29l0 2.84c-4.36,-0.61 -8.1,-0.91 -10.82,-0.91 -16.07,0 -23.96,6.46 -23.96,16.99zm15.66 -0.82c0,-3.54 2.84,-5.66 9.81,-5.66 2.72,0 5.97,0.31 9.3,0.91 -0.71,4.55 -5.36,9.71 -12.64,9.71 -4.14,0 -6.47,-1.72 -6.47,-4.96zm-1.81 -44.43c1.01,-3.31 2.63,-5 5.05,-5 4.24,0 6.17,5.97 14.25,5.97 6.17,0 11.53,-4.05 13.54,-13.45l-8.69 -3.65c-0.91,3.44 -2.63,5.05 -5.05,5.05 -4.14,-0.1 -6.07,-5.97 -14.16,-5.97 -6.26,0 -11.62,4.05 -13.65,13.45l8.7 3.59zm45.09 33.31c0,15.97 11.93,27.39 28.5,27.39 16.58,0 28.51,-11.42 28.51,-27.39 0,-15.98 -11.93,-27.4 -28.51,-27.4 -16.57,0 -28.5,11.42 -28.5,27.4zm16.38 0c0,-8.59 5.15,-14.46 12.12,-14.46 6.98,0 12.13,5.87 12.13,14.46 0,8.59 -5.15,14.36 -12.13,14.36 -6.97,0 -12.12,-5.76 -12.12,-14.36zm-363.85 128.61c0,12.23 9.6,20.11 24.56,20.11 10.01,0 18.9,-3.54 25.47,-9.91l12.55 9.91 4.84 -6.17 -12.43 -9.71c4.34,-6.46 6.97,-14.76 7.38,-24.36l-7.88 0c-0.4,8.19 -2.23,14.76 -5.15,19.82l-26.69 -21.02c-4.65,-3.74 -7.99,-8.39 -7.99,-13.45 0,-5.05 3.03,-11.13 12.24,-11.13 7.68,0 13.03,5.46 14.05,15.16l7.88 0c-1.01,-13.45 -9.6,-21.93 -21.84,-21.93 -12.74,0 -20.42,7.99 -20.42,17.9 0,5.86 2.72,10.82 6.88,15.36 -7.99,3.54 -13.45,10.11 -13.45,19.41zm44.48 5.86c-5.36,5.16 -12.24,7.48 -19.72,7.48 -10.11,0 -16.68,-5.56 -16.68,-13.74 0,-6.88 4.65,-11.84 10.51,-14.26l25.89 20.53zm44.89 -13.14c0,-8.59 5.15,-14.46 12.12,-14.46 6.98,0 12.13,5.87 12.13,14.46 0,8.59 -5.15,14.36 -12.13,14.36 -6.97,0 -12.12,-5.76 -12.12,-14.36zm24.25 26.38l15.58 0 0 -74.81 -15.58 0 0 28.3c-3.94,-4.55 -9.49,-7.28 -16.28,-7.28 -14.45,0 -24.36,11.42 -24.36,27.4 0,15.97 9.91,27.39 23.66,27.39 6.97,0 12.74,-2.92 16.98,-7.78l0 6.77zm24.67 -26.38c0,15.87 11.73,27.39 28.1,27.39 13.15,0 23.15,-7.17 26.6,-18.4l-16.28 0c-1.73,3.43 -4.96,6.17 -10.32,6.17 -5.97,0 -10.91,-4.25 -11.93,-10.62l39.74 0c2.53,-18.6 -10.11,-31.95 -27.8,-31.95 -16.28,0 -28.1,11.42 -28.1,27.4zm16.38 -5.76c1.52,-5.16 5.75,-9.4 11.72,-9.4 6.07,0 10.42,4.34 11.73,9.4l-23.45 0zm46.2 15.36c1.42,10.92 9,17.79 24.36,17.79 16.07,0 24.27,-7.98 24.27,-16.88 0,-22.64 -32.24,-12.03 -32.24,-21.84 0,-2.72 2.72,-4.65 7.38,-4.65 4.65,0 7.68,2.43 8.19,6.37l15.57 0c-1.41,-11.02 -9,-17.79 -23.25,-17.79 -14.87,0 -23.15,7.99 -23.15,16.78 0,22.24 32.35,12.03 32.35,21.93 0,2.73 -2.73,4.65 -8.59,4.65 -5.76,0 -8.79,-2.52 -9.3,-6.37l-15.57 0zm57.73 16.78l15.57 0 0 -52.77 -15.57 0 0 52.77zm-1.11 -67.73c0,5.05 3.94,8.89 8.89,8.89 4.96,0 8.9,-3.84 8.9,-8.89 0,-4.96 -3.94,-8.81 -8.9,-8.81 -4.95,0 -8.89,3.85 -8.89,8.81zm42.16 40.33c0,-7.98 5.15,-13.45 12.12,-13.45 6.98,0 12.13,5.47 12.13,13.45 0,7.99 -5.15,13.35 -12.13,13.35 -6.97,0 -12.12,-5.36 -12.12,-13.35zm-14.46 28.41c1.31,12.04 12.44,20.23 26.29,20.23 16.38,0 28.01,-10.42 28.01,-26.29l0 -47.72 -15.58 0 0 6.06c-3.84,-4.45 -9.6,-7.08 -16.28,-7.08 -14.45,0 -24.36,11.02 -24.36,26.38 0,15.38 9.91,26.4 23.66,26.4 6.87,0 12.63,-2.73 16.98,-7.48l0 4.85c0,7.78 -4.55,12.23 -12.43,12.23 -5.66,0 -9.81,-3.23 -10.42,-7.59l-15.87 0zm65.41 -1.01l15.57 0 0 -30.03c0,-6.26 4.55,-10.71 10.62,-10.71 6.17,0 10.62,4.45 10.62,10.51l0 30.23 15.57 0 0 -32.26c0,-12.63 -8.59,-21.53 -20.82,-21.53 -6.78,0 -12.33,2.73 -15.98,7.39l0 -6.37 -15.57 0 0 52.77z"/>
   <g>
    <path fill="#1C1912" fill-rule="nonzero" d="M3592.7 65.32c0,-2.57 2.26,-4.66 5.02,-4.66 2.77,0 5.02,2.09 5.02,4.66l-10.05 0zm0 228.23l0 -228.23 10.05 0 0 228.23 -10.05 0zm10.05 0c0,2.57 -2.26,4.66 -5.02,4.66 -2.77,0 -5.02,-2.09 -5.02,-4.66l10.05 0z"/>
   </g>
   <g>
    <path fill="white" fill-rule="nonzero" d="M3592.7 65.32c0,-2.57 2.26,-4.66 5.02,-4.66 2.77,0 5.02,2.09 5.02,4.66l-10.05 0zm0 228.23l0 -228.23 10.05 0 0 228.23 -10.05 0zm10.05 0c0,2.57 -2.26,4.66 -5.02,4.66 -2.77,0 -5.02,-2.09 -5.02,-4.66l10.05 0z"/>
   </g>
  </g>
 </g>
</svg>
